<svg id="visual" viewBox="0 0 900 600" width="900" height="600" xmlns="http://www.w3.org/2000/svg" xmlns:xlink="http://www.w3.org/1999/xlink" version="1.1"><rect width="900" height="600" fill="#222222"></rect><g><g transform="translate(603 142)"><path d="M0 -147L86.4 -118.9L139.8 -45.4L139.8 45.4L86.4 118.9L0 147L-86.4 118.9L-139.8 45.4L-139.8 -45.4L-86.4 -118.9Z" fill="none" stroke="#C4FF0D" stroke-width="2"></path></g><g transform="translate(613 583)"><path d="M0 -103L60.5 -83.3L98 -31.8L98 31.8L60.5 83.3L0 103L-60.5 83.3L-98 31.8L-98 -31.8L-60.5 -83.3Z" fill="none" stroke="#C4FF0D" stroke-width="2"></path></g><g transform="translate(308 424)"><path d="M0 -95L55.8 -76.9L90.4 -29.4L90.4 29.4L55.8 76.9L0 95L-55.8 76.9L-90.4 29.4L-90.4 -29.4L-55.8 -76.9Z" fill="none" stroke="#C4FF0D" stroke-width="2"></path></g><g transform="translate(22 199)"><path d="M0 -139L81.7 -112.5L132.2 -43L132.2 43L81.7 112.5L0 139L-81.7 112.5L-132.2 43L-132.2 -43L-81.7 -112.5Z" fill="none" stroke="#C4FF0D" stroke-width="2"></path></g><g transform="translate(14 579)"><path d="M0 -74L43.5 -59.9L70.4 -22.9L70.4 22.9L43.5 59.9L0 74L-43.5 59.9L-70.4 22.9L-70.4 -22.9L-43.5 -59.9Z" fill="none" stroke="#C4FF0D" stroke-width="2"></path></g><g transform="translate(279 10)"><path d="M0 -123L72.3 -99.5L117 -38L117 38L72.3 99.5L0 123L-72.3 99.5L-117 38L-117 -38L-72.3 -99.5Z" fill="none" stroke="#C4FF0D" stroke-width="2"></path></g><g transform="translate(871 280)"><path d="M0 -127L74.6 -102.7L120.8 -39.2L120.8 39.2L74.6 102.7L0 127L-74.6 102.7L-120.8 39.2L-120.8 -39.2L-74.6 -102.7Z" fill="none" stroke="#C4FF0D" stroke-width="2"></path></g></g></svg>