<svg id="visual" viewBox="0 0 900 600" width="900" height="600" xmlns="http://www.w3.org/2000/svg" xmlns:xlink="http://www.w3.org/1999/xlink" version="1.1"><rect width="900" height="600" fill="#222222"></rect><g><g transform="translate(873 472)"><path d="M0 -147L86.4 -118.9L139.8 -45.4L139.8 45.4L86.4 118.9L0 147L-86.4 118.9L-139.8 45.4L-139.8 -45.4L-86.4 -118.9Z" fill="none" stroke="#444343" stroke-width="2"></path></g><g transform="translate(152 325)"><path d="M0 -116L68.2 -93.8L110.3 -35.8L110.3 35.8L68.2 93.8L0 116L-68.2 93.8L-110.3 35.8L-110.3 -35.8L-68.2 -93.8Z" stroke="#444343" fill="none" stroke-width="2"></path></g><g transform="translate(616 242)"><path d="M0 -119L69.9 -96.3L113.2 -36.8L113.2 36.8L69.9 96.3L0 119L-69.9 96.3L-113.2 36.8L-113.2 -36.8L-69.9 -96.3Z" stroke="#444343" fill="none" stroke-width="2"></path></g><g transform="translate(367 19)"><path d="M0 -115L67.6 -93L109.4 -35.5L109.4 35.5L67.6 93L0 115L-67.6 93L-109.4 35.5L-109.4 -35.5L-67.6 -93Z" stroke="#444343" fill="none" stroke-width="2"></path></g><g transform="translate(393 532)"><path d="M0 -128L75.2 -103.6L121.7 -39.6L121.7 39.6L75.2 103.6L0 128L-75.2 103.6L-121.7 39.6L-121.7 -39.6L-75.2 -103.6Z" stroke="#444343" fill="none" stroke-width="2"></path></g><g transform="translate(6 63)"><path d="M0 -109L64.1 -88.2L103.7 -33.7L103.7 33.7L64.1 88.2L0 109L-64.1 88.2L-103.7 33.7L-103.7 -33.7L-64.1 -88.2Z" stroke="#444343" fill="none" stroke-width="2"></path></g><g transform="translate(869 52)"><path d="M0 -114L67 -92.2L108.4 -35.2L108.4 35.2L67 92.2L0 114L-67 92.2L-108.4 35.2L-108.4 -35.2L-67 -92.2Z" stroke="#444343" fill="none" stroke-width="2"></path></g><g transform="translate(15 590)"><path d="M0 -88L51.7 -71.2L83.7 -27.2L83.7 27.2L51.7 71.2L0 88L-51.7 71.2L-83.7 27.2L-83.7 -27.2L-51.7 -71.2Z" stroke="#444343" fill="none" stroke-width="2"></path></g></g></svg>